<svg width="1086" height="173" xmlns="http://www.w3.org/2000/svg" xmlns:xlink="http://www.w3.org/1999/xlink" overflow="hidden"><defs><clipPath id="clip0"><rect x="-10" y="233" width="1086" height="173"/></clipPath><linearGradient x1="1358.37" y1="360.803" x2="1358.37" y2="532.315" gradientUnits="userSpaceOnUse" spreadMethod="reflect" id="fill1"><stop offset="0" stop-color="#375DFF"/><stop offset="0.56" stop-color="#4545E7"/><stop offset="0.94" stop-color="#5856D6"/><stop offset="1" stop-color="#5856D6"/></linearGradient></defs><g clip-path="url(#clip0)" transform="translate(10 -233)"><path d="M1494.6 423.3C1487.49 423.27 1481.61 425.726 1476.99 430.671 1472.36 435.493 1470.05 441.696 1470.05 449.281 1470.05 456.836 1472.36 463.101 1476.99 468.077 1481.61 472.867 1487.49 475.262 1494.6 475.262 1501.72 475.262 1507.59 472.867 1512.22 468.077 1516.99 463.101 1519.37 456.836 1519.34 449.281 1519.37 441.696 1516.99 435.493 1512.22 430.671 1507.59 425.726 1501.72 423.27 1494.6 423.3ZM1123.13 423.282C1119.57 423.279 1116.32 423.886 1113.36 425.103 1110.4 426.321 1107.73 428.173 1105.33 430.658 1103.01 433.06 1101.28 435.817 1100.12 438.932 1098.96 442.048 1098.38 445.499 1098.38 449.281 1098.38 456.841 1100.7 463.112 1105.33 468.089 1107.73 470.486 1110.4 472.285 1113.36 473.484 1116.32 474.682 1119.57 475.281 1123.13 475.281 1130.25 475.281 1136.12 472.885 1140.75 468.089 1145.38 463.112 1147.7 456.841 1147.7 449.281 1147.7 445.499 1147.12 442.048 1145.96 438.932 1144.8 435.817 1143.07 433.06 1140.75 430.658 1138.44 428.173 1135.81 426.321 1132.88 425.103 1129.94 423.886 1126.69 423.279 1123.13 423.282ZM1794.34 421.993C1788.18 422.03 1783.08 423.661 1779.08 426.882 1775.09 430.105 1772.42 434.688 1771.03 440.631 1786.16 440.631 1801.28 440.631 1816.41 440.631 1814.97 434.364 1812.27 429.69 1808.31 426.605 1804.34 423.523 1799.69 421.985 1794.34 421.993ZM1177.06 403.216C1185.42 403.216 1193.78 403.216 1202.14 403.216 1209.85 423.858 1217.56 444.502 1225.27 465.144 1231.85 444.502 1238.43 423.858 1245.02 403.216 1253.2 403.216 1261.38 403.216 1269.57 403.216 1258.77 433.934 1247.98 464.653 1237.19 495.37 1232.61 508.592 1226.47 518.209 1218.78 524.221 1211.08 530.234 1201.56 532.897 1190.22 532.209 1190.22 524.844 1190.22 517.481 1190.22 510.116 1196.3 510.241 1201.18 508.883 1204.88 506.038 1208.57 503.193 1211.46 498.654 1213.53 492.421 1201.37 462.687 1189.21 432.951 1177.06 403.216ZM983.184 403.216C990.829 403.216 998.473 403.216 1006.12 403.216 1006.12 421.095 1006.12 438.972 1006.12 456.851 1006.18 463.044 1007.79 467.751 1010.92 470.972 1014.06 474.195 1018.34 475.814 1023.74 475.833 1029.78 475.838 1034.54 473.941 1038.01 470.143 1041.49 466.345 1043.26 460.625 1043.33 452.98 1043.33 436.391 1043.33 419.803 1043.33 403.216 1050.97 403.216 1058.62 403.216 1066.26 403.216 1066.26 433.926 1066.26 464.637 1066.26 495.348 1058.62 495.348 1050.97 495.348 1043.33 495.348 1043.33 491.911 1043.33 488.475 1043.33 485.04 1037.78 493.662 1028.94 497.958 1016.8 497.929 1011.91 497.932 1007.45 497.095 1003.43 495.419 999.41 493.744 995.802 491.204 992.606 487.802 989.491 484.403 987.143 480.382 985.562 475.737 983.98 471.095 983.187 465.781 983.184 459.799 983.184 440.938 983.184 422.078 983.184 403.216ZM1899.85 401.373C1899.85 410.211 1899.85 419.052 1899.85 427.89 1896.38 427.43 1893.06 427.568 1889.88 428.306 1886.72 429.043 1883.77 430.378 1881 432.314 1878.25 434.244 1876.18 436.787 1874.83 439.941 1873.48 443.094 1872.8 446.884 1872.8 451.308 1872.8 465.988 1872.8 480.668 1872.8 495.348 1865.16 495.348 1857.52 495.348 1849.87 495.348 1849.87 464.637 1849.87 433.926 1849.87 403.216 1857.52 403.216 1865.16 403.216 1872.8 403.216 1872.8 408.494 1872.8 413.774 1872.8 419.052 1875.05 413.159 1878.58 408.739 1883.39 405.792 1888.22 402.846 1893.71 401.373 1899.85 401.373ZM1794.34 400.635C1800.85 400.632 1806.8 401.791 1812.18 404.111 1817.57 406.432 1822.35 409.938 1826.55 414.628 1830.81 419.319 1834.02 424.54 1836.14 430.297 1838.28 436.051 1839.35 442.38 1839.35 449.283 1839.35 450.84 1839.27 452.42 1839.12 454.023 1838.94 455.625 1838.74 457.297 1838.46 459.038 1816.11 459.038 1793.74 459.038 1771.39 459.038 1772.9 464.848 1775.75 469.193 1779.93 472.073 1784.12 474.953 1789.62 476.39 1796.48 476.387 1800.85 476.382 1804.7 475.607 1808.04 474.056 1811.39 472.507 1814.17 470.208 1816.41 467.16 1822.57 470.849 1828.74 474.539 1834.9 478.229 1826.16 491.331 1813.23 497.897 1796.12 497.929 1781.38 497.929 1769.59 493.325 1760.72 484.12 1751.83 474.902 1747.38 463.291 1747.38 449.283 1747.38 442.369 1748.48 436.017 1750.7 430.227 1752.9 424.437 1756.19 419.237 1760.54 414.628 1764.91 409.938 1769.92 406.432 1775.58 404.111 1781.22 401.791 1787.48 400.632 1794.34 400.635ZM1703.59 400.635C1713.39 400.605 1721.4 403.98 1727.61 410.762 1730.82 414.16 1733.21 418.182 1734.81 422.826 1736.42 427.469 1737.22 432.783 1737.22 438.764 1737.22 457.626 1737.22 476.486 1737.22 495.348 1729.56 495.348 1721.92 495.348 1714.27 495.348 1714.27 477.469 1714.27 459.592 1714.27 441.713 1714.21 435.52 1712.61 430.812 1709.48 427.592 1706.33 424.369 1702.05 422.749 1696.66 422.73 1690.62 422.726 1685.85 424.622 1682.38 428.42 1678.9 432.219 1677.14 437.939 1677.06 445.584 1677.06 462.173 1677.06 478.76 1677.06 495.348 1669.42 495.348 1661.78 495.348 1654.13 495.348 1654.13 464.637 1654.13 433.926 1654.13 403.216 1661.78 403.216 1669.42 403.216 1677.06 403.216 1677.06 406.652 1677.06 410.089 1677.06 413.523 1679.83 409.202 1683.43 405.971 1687.87 403.834 1692.29 401.698 1697.54 400.632 1703.59 400.635ZM1605.72 400.635C1615.52 400.605 1623.53 403.98 1629.74 410.762 1632.95 414.16 1635.34 418.182 1636.94 422.826 1638.55 427.469 1639.35 432.783 1639.35 438.764 1639.35 457.626 1639.35 476.486 1639.35 495.348 1631.69 495.348 1624.05 495.348 1616.4 495.348 1616.4 477.469 1616.4 459.592 1616.4 441.713 1616.34 435.52 1614.73 430.812 1611.61 427.592 1608.46 424.369 1604.18 422.749 1598.79 422.73 1592.75 422.726 1587.98 424.622 1584.51 428.42 1581.03 432.219 1579.27 437.939 1579.19 445.584 1579.19 462.173 1579.19 478.76 1579.19 495.348 1571.55 495.348 1563.91 495.348 1556.26 495.348 1556.26 464.637 1556.26 433.926 1556.26 403.216 1563.91 403.216 1571.55 403.216 1579.19 403.216 1579.19 406.652 1579.19 410.089 1579.19 413.523 1581.96 409.202 1585.56 405.971 1590 403.834 1594.42 401.698 1599.67 400.632 1605.72 400.635ZM1490.33 400.635C1502.76 400.605 1512.43 405.089 1519.34 414.087 1519.34 410.463 1519.34 406.838 1519.34 403.214 1526.98 403.214 1534.63 403.214 1542.27 403.214 1542.27 433.926 1542.27 464.639 1542.27 495.351 1534.63 495.351 1526.98 495.351 1519.34 495.351 1519.34 491.726 1519.34 488.101 1519.34 484.476 1512.43 493.475 1502.76 497.958 1490.33 497.929 1478.44 497.958 1468.24 493.291 1459.73 483.923 1451.33 474.495 1447.12 462.948 1447.09 449.281 1447.12 435.677 1451.33 424.191 1459.73 414.824 1463.99 410.122 1468.67 406.581 1473.76 404.205 1478.85 401.83 1484.37 400.64 1490.33 400.635ZM1339.41 390.107C1339.41 403.139 1339.41 416.172 1339.41 429.204 1346.71 429.204 1354.01 429.204 1361.31 429.204 1366.66 429.081 1371 427.206 1374.33 423.579 1377.66 419.951 1379.37 415.31 1379.47 409.655 1379.37 403.919 1377.66 399.254 1374.33 395.662 1371 392.07 1366.66 390.219 1361.31 390.107 1354.01 390.107 1346.71 390.107 1339.41 390.107ZM950.865 377.412C950.865 386.013 950.865 394.615 950.865 403.216 957.568 403.216 964.271 403.216 970.972 403.216 970.972 410.826 970.972 418.437 970.972 426.047 964.271 426.047 957.568 426.047 950.865 426.047 950.865 438.832 950.865 451.617 950.865 464.403 950.879 469.196 952.585 472.1 955.981 473.114 959.376 474.129 964.374 474.36 970.972 473.806 970.972 480.987 970.972 488.167 970.972 495.348 955.405 497.248 944.295 495.705 937.646 490.719 930.995 485.734 927.758 476.961 927.931 464.403 927.931 451.617 927.931 438.832 927.931 426.047 922.771 426.047 917.611 426.047 912.451 426.047 912.451 418.437 912.451 410.826 912.451 403.216 917.611 403.216 922.771 403.216 927.931 403.216 927.931 397.011 927.931 390.805 927.931 384.601 935.576 382.204 943.221 379.809 950.865 377.412ZM1314.88 366.354C1330.35 366.354 1345.83 366.354 1361.31 366.354 1367.28 366.357 1372.79 367.41 1377.84 369.508 1382.9 371.606 1387.47 374.729 1391.56 378.875 1395.65 383.022 1398.72 387.666 1400.76 392.808 1402.81 397.95 1403.83 403.565 1403.83 409.655 1403.83 415.744 1402.81 421.36 1400.76 426.503 1398.72 431.644 1395.65 436.289 1391.56 440.436 1387.47 444.582 1382.9 447.705 1377.84 449.803 1372.79 451.901 1367.28 452.953 1361.31 452.956 1354.01 452.956 1346.71 452.956 1339.41 452.956 1339.41 467.087 1339.41 481.217 1339.41 495.348 1331.23 495.348 1323.06 495.348 1314.88 495.348 1314.88 452.349 1314.88 409.353 1314.88 366.354ZM1147.7 366.354C1155.34 366.354 1162.98 366.354 1170.63 366.354 1170.63 409.353 1170.63 452.349 1170.63 495.348 1162.98 495.348 1155.34 495.348 1147.7 495.348 1147.7 491.727 1147.7 488.107 1147.7 484.487 1140.93 493.478 1131.32 497.958 1118.86 497.929 1112.89 497.932 1107.33 496.773 1102.19 494.453 1097.05 492.132 1092.34 488.626 1088.07 483.935 1083.89 479.235 1080.74 473.99 1078.63 468.202 1076.51 462.413 1075.45 456.102 1075.45 449.27 1075.48 435.661 1079.69 424.176 1088.07 414.813 1092.34 410.114 1097.05 406.577 1102.19 404.203 1107.33 401.829 1112.89 400.64 1118.86 400.635 1131.32 400.605 1140.93 405.086 1147.7 414.077 1147.7 398.169 1147.7 382.262 1147.7 366.354ZM862.968 363.773C873.09 363.839 881.952 366.379 889.553 371.393 897.154 376.407 903.12 383.506 907.45 392.688 900.575 396.805 893.701 400.923 886.826 405.04 884.33 399.509 881.087 395.362 877.101 392.597 873.114 389.83 868.402 388.448 862.968 388.448 857.846 388.514 853.848 389.72 850.973 392.067 848.098 394.413 846.637 397.508 846.588 401.354 846.588 405.41 848.191 408.728 851.396 411.309 853.083 412.511 855.494 413.794 858.629 415.158 861.763 416.521 865.643 417.941 870.269 419.421 873.117 420.404 875.965 421.387 878.815 422.37 879.793 422.65 880.951 423.057 882.286 423.592 883.621 424.125 885.134 424.764 886.826 425.505 890.233 426.794 892.841 428.085 894.649 429.377 896.626 430.624 898.76 432.275 901.049 434.331 903.338 436.385 905.116 438.544 906.382 440.806 907.742 443.042 908.846 445.714 909.694 448.827 910.541 451.937 910.979 455.347 911.004 459.057 911.001 465.046 909.942 470.398 907.827 475.115 905.712 479.831 902.563 483.938 898.383 487.432 890.025 494.429 879.17 497.929 865.816 497.929 853.389 497.833 843.009 494.986 834.679 489.387 826.35 483.79 820.421 476.014 816.893 466.064 823.887 461.823 830.881 457.583 837.877 453.343 840.28 459.891 843.875 464.815 848.661 468.114 853.448 471.414 859.404 473.065 866.529 473.069 873.358 472.996 878.395 471.713 881.641 469.22 884.887 466.727 886.496 463.464 886.471 459.427 886.471 454.817 884.511 451.315 880.595 448.918 878.64 447.628 875.918 446.291 872.426 444.909 868.937 443.525 864.656 442.097 859.585 440.622 854.092 438.947 849.369 437.226 845.413 435.46 841.459 433.694 837.584 431.42 833.788 428.639 829.953 425.689 827.042 422.002 825.054 417.576 823.065 413.152 822.065 407.991 822.054 402.091 822.05 396.275 823.035 391.038 825.009 386.38 826.984 381.72 829.969 377.684 833.965 374.27 837.973 370.77 842.405 368.147 847.261 366.398 852.116 364.648 857.352 363.773 862.968 363.773ZM1413.9 360.803C1421.55 360.803 1429.19 360.803 1436.84 360.803 1436.84 405.65 1436.84 450.498 1436.84 495.348 1429.19 495.348 1421.55 495.348 1413.9 495.348 1413.9 450.498 1413.9 405.65 1413.9 360.803Z" fill="url(#fill1)" fill-rule="evenodd" transform="matrix(1.00221 0 0 1 -828.046 -127.155)"/></g></svg>